# xmcd CD database file
#
# Track frame offsets:
#	150
#	25430
#	57776
#	85146
#	111085
#	141098
#	163827
#	191770
#	228933
#	248083
#	270383
#	299710
#	325776
#
# Disc length: 4713 seconds
#
# Revision: 0
# Processed by: cddbd v1.5.2PL0 Copyright (c) Steve Scherf et al.
# Submitted via: CDex 1.51
#
DISCID=b812670d
DTITLE=Various Artist - Kompa Gold III
DYEAR=2002
DGENRE=Salsa
TTITLE0=Sa Poun Fe?/Mizik Mizik
TTITLE1=Adoration/T-Vice
TTITLE2=Love is Forever/Zenglen
TTITLE3=Nap Fe Yo Sezi/My All Stars
TTITLE4=Exclusive/Alan Cave
TTITLE5=Player/Cariml
TTITLE6=Ki Lang Ou Pale/KDans
TTITLE7=Lya Lya Oh Oh/Robert Charlot
TTITLE8=Viens Chez Moi/Kompa Kreyol
TTITLE9=Pa Bliye/Dega
TTITLE10=Bekeke Neuf/Dzine
TTITLE11=Amour A La Folie/Kine
TTITLE12=You and I/Dzine (adaptation) Sweet Mickey (LIve)
EXTD=YEAR: 2002
EXTT0=
EXTT1=
EXTT2=
EXTT3=
EXTT4=
EXTT5=
EXTT6=
EXTT7=
EXTT8=
EXTT9=
EXTT10=
EXTT11=
EXTT12=
PLAYORDER=
